<mxfile host="app.diagrams.net" modified="2022-02-28T10:08:58.520Z" agent="5.0 (Windows NT 10.0; Win64; x64) AppleWebKit/537.36 (KHTML, like Gecko) Chrome/98.0.4758.102 Safari/537.36" etag="7H7XQT1AO04IPLGsJwxP" version="16.6.4" type="github">
  <diagram id="kLaYgqHj6E8qpt9XAXxK" name="Page-1">
    <mxGraphModel dx="1730" dy="2067" grid="1" gridSize="10" guides="1" tooltips="1" connect="1" arrows="1" fold="1" page="1" pageScale="1" pageWidth="827" pageHeight="1169" math="0" shadow="0">
      <root>
        <mxCell id="0" />
        <mxCell id="1" parent="0" />
        <mxCell id="zSj-oXVvPn1SrqjFwXzr-32" value="" style="rounded=0;whiteSpace=wrap;html=1;" parent="1" vertex="1">
          <mxGeometry x="160" y="-6" width="530" height="746" as="geometry" />
        </mxCell>
        <mxCell id="zSj-oXVvPn1SrqjFwXzr-1" value="Student" style="shape=umlActor;verticalLabelPosition=bottom;verticalAlign=top;html=1;outlineConnect=0;" parent="1" vertex="1">
          <mxGeometry x="9" y="40" width="40" height="80" as="geometry" />
        </mxCell>
        <mxCell id="zSj-oXVvPn1SrqjFwXzr-2" value="Teacher" style="shape=umlActor;verticalLabelPosition=bottom;verticalAlign=top;html=1;outlineConnect=0;" parent="1" vertex="1">
          <mxGeometry x="10" y="439" width="40" height="81" as="geometry" />
        </mxCell>
        <mxCell id="zSj-oXVvPn1SrqjFwXzr-7" value="Enroll Student" style="ellipse;whiteSpace=wrap;html=1;" parent="1" vertex="1">
          <mxGeometry x="352" y="50" width="160" height="60" as="geometry" />
        </mxCell>
        <mxCell id="zSj-oXVvPn1SrqjFwXzr-9" value="Upload Photo Sample" style="ellipse;whiteSpace=wrap;html=1;" parent="1" vertex="1">
          <mxGeometry x="357" y="120" width="160" height="60" as="geometry" />
        </mxCell>
        <mxCell id="zSj-oXVvPn1SrqjFwXzr-14" value="Train Dataset" style="ellipse;whiteSpace=wrap;html=1;" parent="1" vertex="1">
          <mxGeometry x="353" y="273" width="170" height="74" as="geometry" />
        </mxCell>
        <mxCell id="zSj-oXVvPn1SrqjFwXzr-15" value="" style="endArrow=classic;html=1;rounded=0;entryX=0;entryY=0.5;entryDx=0;entryDy=0;exitX=0.75;exitY=0.1;exitDx=0;exitDy=0;exitPerimeter=0;" parent="1" source="zSj-oXVvPn1SrqjFwXzr-1" target="zSj-oXVvPn1SrqjFwXzr-14" edge="1">
          <mxGeometry width="50" height="50" relative="1" as="geometry">
            <mxPoint x="360" y="350" as="sourcePoint" />
            <mxPoint x="410" y="300" as="targetPoint" />
          </mxGeometry>
        </mxCell>
        <mxCell id="zSj-oXVvPn1SrqjFwXzr-18" value="" style="endArrow=classic;html=1;rounded=0;entryX=0;entryY=0.5;entryDx=0;entryDy=0;exitX=0.5;exitY=0;exitDx=0;exitDy=0;exitPerimeter=0;" parent="1" source="zSj-oXVvPn1SrqjFwXzr-1" target="zSj-oXVvPn1SrqjFwXzr-9" edge="1">
          <mxGeometry width="50" height="50" relative="1" as="geometry">
            <mxPoint x="360" y="350" as="sourcePoint" />
            <mxPoint x="410" y="300" as="targetPoint" />
          </mxGeometry>
        </mxCell>
        <mxCell id="zSj-oXVvPn1SrqjFwXzr-20" value="Mark Attendance" style="ellipse;whiteSpace=wrap;html=1;" parent="1" vertex="1">
          <mxGeometry x="357" y="434" width="163" height="76" as="geometry" />
        </mxCell>
        <mxCell id="zSj-oXVvPn1SrqjFwXzr-21" value="" style="endArrow=classic;html=1;rounded=0;entryX=0;entryY=0.5;entryDx=0;entryDy=0;exitX=1;exitY=0.3333333333333333;exitDx=0;exitDy=0;exitPerimeter=0;" parent="1" source="zSj-oXVvPn1SrqjFwXzr-1" target="zSj-oXVvPn1SrqjFwXzr-20" edge="1">
          <mxGeometry width="50" height="50" relative="1" as="geometry">
            <mxPoint x="360" y="350" as="sourcePoint" />
            <mxPoint x="410" y="300" as="targetPoint" />
          </mxGeometry>
        </mxCell>
        <mxCell id="zSj-oXVvPn1SrqjFwXzr-22" value="Check Data" style="ellipse;whiteSpace=wrap;html=1;" parent="1" vertex="1">
          <mxGeometry x="350" y="190" width="168" height="70" as="geometry" />
        </mxCell>
        <mxCell id="zSj-oXVvPn1SrqjFwXzr-24" value="Export CSV" style="ellipse;whiteSpace=wrap;html=1;" parent="1" vertex="1">
          <mxGeometry x="353" y="355" width="170" height="72" as="geometry" />
        </mxCell>
        <mxCell id="zSj-oXVvPn1SrqjFwXzr-29" value="Update Student Details" style="ellipse;whiteSpace=wrap;html=1;" parent="1" vertex="1">
          <mxGeometry x="350" y="520" width="170" height="80" as="geometry" />
        </mxCell>
        <mxCell id="zSj-oXVvPn1SrqjFwXzr-30" value="" style="endArrow=classic;html=1;rounded=0;entryX=0;entryY=0.5;entryDx=0;entryDy=0;exitX=0.5;exitY=0.5;exitDx=0;exitDy=0;exitPerimeter=0;" parent="1" source="zSj-oXVvPn1SrqjFwXzr-1" target="zSj-oXVvPn1SrqjFwXzr-29" edge="1">
          <mxGeometry width="50" height="50" relative="1" as="geometry">
            <mxPoint x="360" y="350" as="sourcePoint" />
            <mxPoint x="410" y="300" as="targetPoint" />
          </mxGeometry>
        </mxCell>
        <mxCell id="zSj-oXVvPn1SrqjFwXzr-33" value="Face Recognition Attendance System" style="text;html=1;strokeColor=none;fillColor=none;align=center;verticalAlign=middle;whiteSpace=wrap;rounded=0;" parent="1" vertex="1">
          <mxGeometry x="160" y="-10" width="530" height="50" as="geometry" />
        </mxCell>
        <mxCell id="zSj-oXVvPn1SrqjFwXzr-36" value="" style="endArrow=classic;html=1;rounded=0;entryX=0;entryY=0.5;entryDx=0;entryDy=0;exitX=1;exitY=0.3333333333333333;exitDx=0;exitDy=0;exitPerimeter=0;" parent="1" source="zSj-oXVvPn1SrqjFwXzr-2" target="zSj-oXVvPn1SrqjFwXzr-24" edge="1">
          <mxGeometry width="50" height="50" relative="1" as="geometry">
            <mxPoint x="360" y="340" as="sourcePoint" />
            <mxPoint x="410" y="290" as="targetPoint" />
          </mxGeometry>
        </mxCell>
        <mxCell id="zSj-oXVvPn1SrqjFwXzr-37" value="" style="endArrow=classic;html=1;rounded=0;entryX=0;entryY=0.5;entryDx=0;entryDy=0;exitX=0.75;exitY=0.1;exitDx=0;exitDy=0;exitPerimeter=0;" parent="1" source="zSj-oXVvPn1SrqjFwXzr-2" target="zSj-oXVvPn1SrqjFwXzr-22" edge="1">
          <mxGeometry width="50" height="50" relative="1" as="geometry">
            <mxPoint x="360" y="340" as="sourcePoint" />
            <mxPoint x="410" y="290" as="targetPoint" />
          </mxGeometry>
        </mxCell>
        <mxCell id="zSj-oXVvPn1SrqjFwXzr-38" value="" style="endArrow=classic;html=1;rounded=0;entryX=0;entryY=0.5;entryDx=0;entryDy=0;exitX=0.5;exitY=0.5;exitDx=0;exitDy=0;exitPerimeter=0;" parent="1" source="zSj-oXVvPn1SrqjFwXzr-2" target="zSj-oXVvPn1SrqjFwXzr-20" edge="1">
          <mxGeometry width="50" height="50" relative="1" as="geometry">
            <mxPoint x="360" y="340" as="sourcePoint" />
            <mxPoint x="410" y="290" as="targetPoint" />
          </mxGeometry>
        </mxCell>
        <mxCell id="zSj-oXVvPn1SrqjFwXzr-39" value="Admin" style="shape=umlActor;verticalLabelPosition=bottom;verticalAlign=top;html=1;outlineConnect=0;" parent="1" vertex="1">
          <mxGeometry x="760" y="240" width="40" height="70" as="geometry" />
        </mxCell>
        <mxCell id="zSj-oXVvPn1SrqjFwXzr-40" value="" style="endArrow=classic;html=1;rounded=0;entryX=1;entryY=0.5;entryDx=0;entryDy=0;exitX=0.5;exitY=0;exitDx=0;exitDy=0;exitPerimeter=0;" parent="1" source="zSj-oXVvPn1SrqjFwXzr-39" target="zSj-oXVvPn1SrqjFwXzr-7" edge="1">
          <mxGeometry width="50" height="50" relative="1" as="geometry">
            <mxPoint x="330" y="420" as="sourcePoint" />
            <mxPoint x="380" y="370" as="targetPoint" />
          </mxGeometry>
        </mxCell>
        <mxCell id="zSj-oXVvPn1SrqjFwXzr-41" value="" style="endArrow=classic;html=1;rounded=0;entryX=1;entryY=0.5;entryDx=0;entryDy=0;exitX=0;exitY=0.3333333333333333;exitDx=0;exitDy=0;exitPerimeter=0;" parent="1" source="zSj-oXVvPn1SrqjFwXzr-39" target="zSj-oXVvPn1SrqjFwXzr-29" edge="1">
          <mxGeometry width="50" height="50" relative="1" as="geometry">
            <mxPoint x="330" y="420" as="sourcePoint" />
            <mxPoint x="380" y="370" as="targetPoint" />
          </mxGeometry>
        </mxCell>
        <mxCell id="zSj-oXVvPn1SrqjFwXzr-42" value="Provide Access Rights" style="ellipse;whiteSpace=wrap;html=1;" parent="1" vertex="1">
          <mxGeometry x="316" y="610" width="238" height="100" as="geometry" />
        </mxCell>
        <mxCell id="zSj-oXVvPn1SrqjFwXzr-43" value="" style="endArrow=classic;html=1;rounded=0;entryX=1;entryY=0.5;entryDx=0;entryDy=0;exitX=0.5;exitY=0.5;exitDx=0;exitDy=0;exitPerimeter=0;" parent="1" source="zSj-oXVvPn1SrqjFwXzr-39" target="zSj-oXVvPn1SrqjFwXzr-42" edge="1">
          <mxGeometry width="50" height="50" relative="1" as="geometry">
            <mxPoint x="330" y="420" as="sourcePoint" />
            <mxPoint x="380" y="370" as="targetPoint" />
          </mxGeometry>
        </mxCell>
      </root>
    </mxGraphModel>
  </diagram>
</mxfile>
